<svg xmlns="http://www.w3.org/2000/svg" width="114.529" height="43" viewBox="0 0 114.529 43">
  <g id="Grupo_5" data-name="Grupo 5" transform="translate(-1739 -996)">
    <text id="IDEALIZADOR" transform="translate(1796 1010)" font-size="13" font-family="Roboto-Light, Roboto" font-weight="300"><tspan x="-39.667" y="0">IDEALIZADOR</tspan></text>
    <g id="Grupo_1" data-name="Grupo 1" transform="translate(1739 1022.664)">
      <path id="Caminho_1" data-name="Caminho 1" d="M991.159,1a8.156,8.156,0,1,0,8.159,8.153A8.157,8.157,0,0,0,991.159,1Zm0,12.259a4.106,4.106,0,1,1,4.106-4.106A4.108,4.108,0,0,1,991.159,13.259Z" transform="translate(-927.214 -0.982)"/>
      <path id="Caminho_2" data-name="Caminho 2" d="M1364.459,1a8.159,8.159,0,1,0,8.159,8.159A8.158,8.158,0,0,0,1364.459,1Zm0,12.259a4.106,4.106,0,1,1,4.106-4.106A4.108,4.108,0,0,1,1364.459,13.259Z" transform="translate(-1280.472 -0.982)"/>
      <path id="Caminho_3" data-name="Caminho 3" d="M3.252.7H-.8V17.005H8.649V12.959h-5.4Z" transform="translate(0.8 -0.7)"/>
      <path id="Caminho_4" data-name="Caminho 4" d="M545.846.7H541.8V17.005h4.046V6.766l2.694,4.145,2.026-3.03Z" transform="translate(-511.099 -0.7)"/>
      <path id="Caminho_5" data-name="Caminho 5" d="M690.281,17.005V.7h-4.046l-6.151,9.2-1.423,1.983-.018.024h4.082l-.018-.024,3.527-5.121V17.005Z" transform="translate(-640.153 -0.7)"/>
      <path id="Caminho_6" data-name="Caminho 6" d="M279.6,12.959h-5.445V10.9h2.074V6.845h-2.074V4.764H279.6V.718h-5.445V.7H270.1V17.005h9.5Z" transform="translate(-254.773 -0.7)"/>
      <path id="Caminho_7" data-name="Caminho 7" d="M1741.429.7V11.612L1733.246.7H1729.2V17.005h4.046V6.1l8.183,10.906h4.052V.7Z" transform="translate(-1630.952 -0.7)"/>
    </g>
  </g>
</svg>
